<svg width="163" height="30" viewBox="0 0 163 30" fill="none" xmlns="http://www.w3.org/2000/svg">
<g clip-path="url(#clip0_9018_1774)">
<path d="M97.1998 8.83259L102.449 5.7998L107.699 8.83259L105.769 9.95298L102.449 8.04059L99.1298 9.95298L97.1998 8.83259ZM107.699 12.6574L105.769 11.537L102.449 13.4494L99.1298 11.537L97.1998 12.6574V14.8982L100.519 16.8105V20.6353L102.449 21.7557L104.379 20.6353V16.8105L107.699 14.8982V12.6574ZM107.699 18.7229V16.4822L105.769 17.6025V19.8433L107.699 18.7229ZM109.069 19.5149L105.75 21.4273V23.6681L110.999 20.6353V14.5697L109.069 15.6902V19.5149ZM107.139 10.745L109.069 11.8654V14.1062L110.999 12.9858V10.745L109.069 9.62459L107.139 10.745ZM100.519 22.2387V24.4795L102.449 25.5998L104.379 24.4795V22.2387L102.449 23.359L100.519 22.2387ZM97.1998 18.7229L99.1298 19.8433V17.6025L97.1998 16.4822V18.7229ZM100.519 10.745L102.449 11.8654L104.379 10.745L102.449 9.62459L100.519 10.745ZM95.8294 11.8654L97.7595 10.745L95.8294 9.62459L93.8994 10.745V12.9858L95.8294 14.1062V11.8654ZM95.8294 15.6902L93.8994 14.5697V20.6353L99.1491 23.6681V21.4273L95.8294 19.5149V15.6902Z" fill="#F0B90B"/>
<path d="M118.525 20.1696C117.798 20.1696 117.174 20.0211 116.652 19.724C116.133 19.4239 115.732 19.0068 115.45 18.4727C115.171 17.9356 115.032 17.3129 115.032 16.6047C115.032 15.8936 115.171 15.2709 115.45 14.7368C115.732 14.1997 116.133 13.7826 116.652 13.4855C117.174 13.1854 117.798 13.0354 118.525 13.0354C119.251 13.0354 119.873 13.1854 120.392 13.4855C120.915 13.7826 121.315 14.1997 121.594 14.7368C121.876 15.2709 122.017 15.8936 122.017 16.6047C122.017 17.3129 121.876 17.9356 121.594 18.4727C121.315 19.0068 120.915 19.4239 120.392 19.724C119.873 20.0211 119.251 20.1696 118.525 20.1696ZM118.538 18.5087C118.802 18.5087 119.026 18.4277 119.209 18.2656C119.392 18.1036 119.531 17.8786 119.627 17.5905C119.726 17.3024 119.776 16.9693 119.776 16.5912C119.776 16.2072 119.726 15.8711 119.627 15.583C119.531 15.2949 119.392 15.0699 119.209 14.9078C119.026 14.7458 118.802 14.6648 118.538 14.6648C118.265 14.6648 118.034 14.7458 117.845 14.9078C117.659 15.0699 117.516 15.2949 117.417 15.583C117.321 15.8711 117.273 16.2072 117.273 16.5912C117.273 16.9693 117.321 17.3024 117.417 17.5905C117.516 17.8786 117.659 18.1036 117.845 18.2656C118.034 18.4277 118.265 18.5087 118.538 18.5087ZM123.006 22.6317V13.1254H125.184V14.3092H125.252C125.342 14.0992 125.469 13.8966 125.634 13.7016C125.802 13.5065 126.015 13.3475 126.273 13.2244C126.534 13.0984 126.847 13.0354 127.21 13.0354C127.69 13.0354 128.138 13.1614 128.555 13.4135C128.976 13.6656 129.315 14.0541 129.573 14.5793C129.831 15.1044 129.96 15.7736 129.96 16.5867C129.96 17.3699 129.835 18.0256 129.586 18.5537C129.34 19.0818 129.007 19.4779 128.587 19.742C128.17 20.0061 127.706 20.1381 127.196 20.1381C126.848 20.1381 126.546 20.0811 126.291 19.967C126.036 19.853 125.822 19.703 125.648 19.5169C125.477 19.3309 125.345 19.1313 125.252 18.9183H125.207V22.6317H123.006ZM125.162 16.5822C125.162 16.9543 125.211 17.2784 125.31 17.5545C125.412 17.8305 125.558 18.0451 125.747 18.1981C125.939 18.3482 126.168 18.4232 126.435 18.4232C126.705 18.4232 126.935 18.3482 127.124 18.1981C127.313 18.0451 127.456 17.8305 127.552 17.5545C127.651 17.2784 127.7 16.9543 127.7 16.5822C127.7 16.2102 127.651 15.8876 127.552 15.6145C127.456 15.3415 127.313 15.1299 127.124 14.9799C126.938 14.8298 126.708 14.7548 126.435 14.7548C126.165 14.7548 125.936 14.8283 125.747 14.9754C125.558 15.1224 125.412 15.3324 125.31 15.6055C125.211 15.8786 125.162 16.2042 125.162 16.5822ZM130.974 20.0391V10.8209H134.818C135.508 10.8209 136.086 10.9184 136.551 11.1134C137.019 11.3085 137.37 11.5816 137.604 11.9326C137.841 12.2837 137.96 12.6903 137.96 13.1524C137.96 13.5035 137.886 13.8171 137.739 14.0932C137.592 14.3662 137.389 14.5928 137.131 14.7728C136.873 14.9529 136.575 15.0789 136.236 15.1509V15.2409C136.608 15.2589 136.951 15.3595 137.266 15.5425C137.584 15.7255 137.839 15.9806 138.032 16.3077C138.224 16.6318 138.32 17.0158 138.32 17.46C138.32 17.9551 138.194 18.3977 137.942 18.7878C137.689 19.1749 137.325 19.4809 136.848 19.706C136.371 19.928 135.791 20.0391 135.11 20.0391H130.974ZM133.202 18.2431H134.579C135.062 18.2431 135.418 18.1516 135.646 17.9686C135.877 17.7855 135.993 17.5305 135.993 17.2034C135.993 16.9663 135.937 16.7623 135.826 16.5912C135.715 16.4172 135.557 16.2837 135.353 16.1907C135.149 16.0946 134.905 16.0466 134.62 16.0466H133.202V18.2431ZM133.202 14.6108H134.435C134.678 14.6108 134.894 14.5703 135.083 14.4892C135.272 14.4082 135.419 14.2912 135.524 14.1382C135.632 13.9851 135.686 13.8006 135.686 13.5845C135.686 13.2755 135.577 13.0324 135.358 12.8554C135.139 12.6783 134.843 12.5898 134.471 12.5898H133.202V14.6108ZM147.097 10.8209V20.0391H145.206L141.538 14.7188H141.48V20.0391H139.252V10.8209H141.169L144.797 16.1321H144.873V10.8209H147.097ZM148.359 20.0391V10.8209H152.202C152.893 10.8209 153.47 10.9184 153.935 11.1134C154.404 11.3085 154.755 11.5816 154.989 11.9326C155.226 12.2837 155.344 12.6903 155.344 13.1524C155.344 13.5035 155.271 13.8171 155.124 14.0932C154.977 14.3662 154.774 14.5928 154.516 14.7728C154.258 14.9529 153.959 15.0789 153.62 15.1509V15.2409C153.992 15.2589 154.336 15.3595 154.651 15.5425C154.969 15.7255 155.224 15.9806 155.416 16.3077C155.608 16.6318 155.704 17.0158 155.704 17.46C155.704 17.9551 155.578 18.3977 155.326 18.7878C155.074 19.1749 154.71 19.4809 154.232 19.706C153.755 19.928 153.176 20.0391 152.495 20.0391H148.359ZM150.587 18.2431H151.964C152.447 18.2431 152.803 18.1516 153.031 17.9686C153.262 17.7855 153.377 17.5305 153.377 17.2034C153.377 16.9663 153.322 16.7623 153.211 16.5912C153.1 16.4172 152.942 16.2837 152.738 16.1907C152.534 16.0946 152.29 16.0466 152.004 16.0466H150.587V18.2431ZM150.587 14.6108H151.82C152.063 14.6108 152.279 14.5703 152.468 14.4892C152.657 14.4082 152.804 14.2912 152.909 14.1382C153.017 13.9851 153.071 13.8006 153.071 13.5845C153.071 13.2755 152.962 13.0324 152.743 12.8554C152.524 12.6783 152.228 12.5898 151.856 12.5898H150.587V14.6108Z" fill="#F0B90B"/>
<g opacity="0.8">
<path d="M81.5 18.3491L86.5707 13.2998" stroke="white" stroke-width="0.473438"/>
<path d="M86.7334 18.3496L81.6627 13.3003" stroke="white" stroke-width="0.473438"/>
</g>
<path fill-rule="evenodd" clip-rule="evenodd" d="M16.8367 11.9901C17.9121 11.7644 18.8195 10.936 19.1028 9.78308H19.1027C19.4969 8.1798 18.5351 6.55566 16.9544 6.15596C15.3742 5.75626 13.7733 6.73205 13.3795 8.33548C12.9852 9.93868 13.9472 11.5625 15.5272 11.9623C15.5548 11.9693 15.5825 11.9759 15.6101 11.982V13.1288H12.9332C9.54574 13.1288 6.7998 15.9147 6.7998 19.3511V22.3331V23.7553H8.20175H20.4974C23.3899 23.7553 25.7347 21.3765 25.7347 18.442C25.7347 15.5076 23.3899 13.1288 20.4974 13.1288H16.8367V11.9901ZM16.8931 7.87761C17.3019 8.02042 17.6007 8.2345 17.5421 8.63281C17.4997 8.92441 17.3404 9.06548 17.1288 9.11494C17.4192 9.26841 17.5671 9.50361 17.4263 9.91134C17.2515 10.4179 16.8365 10.4607 16.2843 10.3547L16.1504 10.8993L15.8267 10.8175L15.9589 10.2801C15.8749 10.2589 15.7893 10.2365 15.7009 10.2123L15.5682 10.7521L15.2449 10.6703L15.3788 10.1245C15.3477 10.1165 15.3164 10.1083 15.2848 10.0999C15.2398 10.088 15.1941 10.0759 15.148 10.0641L14.7267 9.95761L14.8874 9.58174C14.8874 9.58174 15.1259 9.64601 15.1227 9.64134C15.2144 9.66428 15.255 9.60374 15.271 9.56334L15.4828 8.70228C15.4913 8.70441 15.4996 8.70654 15.5076 8.70854L15.5169 8.71094C15.5041 8.70561 15.4924 8.70228 15.4833 8.70001L15.6344 8.08534C15.6384 8.01557 15.6146 7.92753 15.4836 7.89434C15.4885 7.8909 15.2484 7.83505 15.2484 7.83505L15.3345 7.4843L15.781 7.59738L15.7806 7.59909C15.8477 7.61602 15.9169 7.6321 15.9873 7.64837L16.1199 7.10905L16.4435 7.19089L16.3135 7.71964C16.4004 7.73976 16.4878 7.76004 16.5728 7.78157L16.702 7.25629L17.0257 7.33812L16.8931 7.87761ZM15.869 9.83361C16.1332 9.90441 16.7106 10.0591 16.8024 9.68494C16.8964 9.30241 16.3367 9.17494 16.0634 9.11281C16.0328 9.10574 16.0059 9.09961 15.9838 9.09414L15.8059 9.81694C15.8241 9.82161 15.8454 9.82721 15.869 9.83361ZM16.1182 8.77721C16.3384 8.83681 16.8189 8.96694 16.9025 8.62681H16.9026C16.988 8.27908 16.5211 8.17422 16.293 8.12301C16.2674 8.11725 16.2448 8.11216 16.2263 8.10749L16.0651 8.76321C16.0802 8.76694 16.0981 8.77174 16.118 8.77721H16.1182ZM20.4974 14.5511H12.9332C10.32 14.5511 8.20175 16.7001 8.20175 19.3511V22.3331H20.4974C22.6157 22.3331 24.3329 20.5911 24.3329 18.442C24.3329 16.2931 22.6157 14.5511 20.4974 14.5511ZM13.8241 18.5576C13.8241 19.2535 13.2681 19.8176 12.5821 19.8176C11.8962 19.8176 11.3401 19.2535 11.3401 18.5576C11.3401 17.8617 11.8962 17.2976 12.5821 17.2976C13.2681 17.2976 13.8241 17.8617 13.8241 18.5576ZM19.9597 19.8176C20.6457 19.8176 21.2017 19.2535 21.2017 18.5576C21.2017 17.8617 20.6457 17.2976 19.9597 17.2976C19.2738 17.2976 18.7177 17.8617 18.7177 18.5576C18.7177 19.2535 19.2738 19.8176 19.9597 19.8176Z" fill="#BBBBBB"/>
<path d="M52.3506 18.1632V17.2569H53.706V18.1553C53.706 18.7179 53.8265 19.1215 54.0678 19.3663C54.3143 19.6111 54.6301 19.7335 55.015 19.7335C55.431 19.7335 55.7518 19.5955 55.9778 19.3195C56.2088 19.0433 56.3242 18.46 56.3242 17.5695C56.3242 16.6528 56.1779 16.0408 55.8854 15.7335C55.5927 15.4261 55.2076 15.2725 54.7302 15.2725H53.8523V14.2569H54.6532C55.1152 14.2569 55.4771 14.1084 55.7389 13.8116C56.0008 13.5095 56.1318 12.9808 56.1318 12.2256C56.1318 11.4704 56.0341 10.9731 55.8391 10.7335C55.6441 10.4939 55.3694 10.3741 55.015 10.3741C54.6301 10.3741 54.3451 10.4965 54.1604 10.7413C53.9754 10.9861 53.883 11.3637 53.883 11.8741V12.6944H52.5508V11.8037C52.5508 10.9652 52.7844 10.3272 53.2517 9.88972C53.7188 9.44705 54.3143 9.22559 55.0382 9.22559C55.7877 9.22559 56.3833 9.44959 56.8248 9.89745C57.2714 10.3403 57.4948 11.0695 57.4948 12.0851C57.4948 12.8507 57.3767 13.4365 57.1405 13.8428C56.9096 14.2491 56.5938 14.5304 56.1933 14.6865V14.7179C56.6298 14.8272 56.9917 15.1059 57.2792 15.5537C57.5667 15.9965 57.7104 16.684 57.7104 17.6163C57.7104 18.6944 57.4742 19.5069 57.002 20.0537C56.5296 20.5955 55.8674 20.8663 55.015 20.8663C54.2142 20.8663 53.5699 20.6345 53.0821 20.1709C52.5945 19.7023 52.3506 19.0329 52.3506 18.1632Z" fill="#BBBBBB"/>
<path d="M30.9194 16.9766V13.6173C30.9194 12.185 31.1992 11.1407 31.7587 10.4845C32.3235 9.82299 33.073 9.49219 34.0075 9.49219C34.9521 9.49219 35.7067 9.82299 36.2715 10.4845C36.8362 11.1407 37.1187 12.185 37.1187 13.6173V16.9766C37.1187 18.3777 36.8311 19.4219 36.2561 20.1094C35.6862 20.7918 34.9393 21.1329 34.0151 21.1329C33.0808 21.1329 32.3312 20.7918 31.7665 20.1094C31.2017 19.4219 30.9194 18.3777 30.9194 16.9766ZM32.3595 17.1875C32.3595 18.2137 32.5058 18.9375 32.7983 19.3594C33.0962 19.7813 33.5017 19.9922 34.0151 19.9922C34.5182 19.9922 34.9213 19.7813 35.2242 19.3594C35.5271 18.9375 35.6786 18.2137 35.6786 17.1875V13.4298C35.6786 12.4037 35.5271 11.685 35.2242 11.2735C34.9264 10.8621 34.5235 10.6563 34.0151 10.6563C33.5017 10.6563 33.0962 10.8621 32.7983 11.2735C32.5058 11.685 32.3595 12.4037 32.3595 13.4298V17.1875ZM36.8429 21.3787L34.2615 18.9089L35.1888 18.3275L37.7753 20.7703L36.8429 21.3787Z" fill="#BBBBBB"/>
<path d="M44.8296 20.9999L47.2863 9.625H48.9959L51.4293 20.9999H50.0509L48.3336 13.1093C48.2925 12.8906 48.2515 12.6406 48.2103 12.3593C48.1744 12.0729 48.1411 11.8437 48.1102 11.6718H48.0872C48.0512 11.8437 48.0153 12.0729 47.9793 12.3593C47.9434 12.6406 47.9049 12.8906 47.8637 13.1093L46.2004 20.9999H44.8296ZM46.0849 18.1327L46.3005 17.0469H49.9507L50.1741 18.1327H46.0849Z" fill="#BBBBBB"/>
<path d="M38.8042 21V13.836H40.1134V14.6093H40.1287C40.2879 14.3229 40.5163 14.0989 40.8141 13.9374C41.1118 13.776 41.461 13.6953 41.8614 13.6953C42.38 13.6953 42.7958 13.8541 43.109 14.1718C43.4221 14.4844 43.5787 15.0026 43.5787 15.7265V21H42.2388V16.0078C42.2388 15.565 42.1541 15.2578 41.9846 15.086C41.8204 14.914 41.5893 14.8281 41.2916 14.8281C41.0297 14.8281 40.7988 14.9062 40.5985 15.0625C40.3983 15.2188 40.2468 15.4245 40.1441 15.6797V21H38.8042Z" fill="#BBBBBB"/>
<path d="M62.3096 20.9999L64.7662 9.625H66.4759L68.9093 20.9999H67.5308L65.8136 13.1093C65.7725 12.8906 65.7314 12.6406 65.6903 12.3593C65.6544 12.0729 65.621 11.8437 65.5902 11.6718H65.5672C65.5311 11.8437 65.4953 12.0729 65.4593 12.3593C65.4234 12.6406 65.3849 12.8906 65.3437 13.1093L63.6804 20.9999H62.3096ZM63.5648 18.1327L63.7805 17.0469H67.4307L67.6541 18.1327H63.5648ZM70.4793 20.9999V9.625H71.8809V20.9999H70.4793Z" fill="#BBBBBB"/>
<path d="M60.5545 19.667H59.2402V21.0003H60.5545V19.667Z" fill="#BBBBBB"/>
</g>
<defs>
<clipPath id="clip0_9018_1774">
<rect width="163" height="30" fill="white"/>
</clipPath>
</defs>
</svg>
